<svg xmlns="http://www.w3.org/2000/svg" version="1.1" xmlns:xlink="http://www.w3.org/1999/xlink" xmlns:svgjs="http://svgjs.com/svgjs" width="1000" height="1000"><rect width="1000" height="1000" rx="250" ry="250" fill="#000000"></rect><g transform="matrix(3.8461538461538463,0,0,3.8461538461538463,51.69479188437646,48.8873295050401)"><svg xmlns="http://www.w3.org/2000/svg" version="1.1" xmlns:xlink="http://www.w3.org/1999/xlink" xmlns:svgjs="http://svgjs.com/svgjs" width="233" height="234"><svg width="233" height="234" viewBox="0 0 233 234" fill="none" xmlns="http://www.w3.org/2000/svg">
<rect x="0.160706" y="0.971436" width="232.839" height="232.839" rx="46" fill="white"></rect>
<path fill-rule="evenodd" clip-rule="evenodd" d="M139.504 89.0948C139.504 104.35 127.211 116.713 112.044 116.713C96.8762 116.713 84.5835 104.35 84.5835 89.0948C84.5835 73.8399 96.8762 61.4764 112.044 61.4764C127.211 61.4764 139.504 73.8399 139.504 89.0948ZM160.099 161.593C160.099 167.311 155.487 171.95 149.801 171.95H82.5649L78.8467 164.407C85.2174 159.126 89.2857 151.146 89.2857 142.211C89.2857 135.809 87.1982 129.895 83.6668 125.112C86.5435 124.143 89.622 123.618 92.822 123.618H96.4045C101.189 125.819 106.466 127.07 112.044 127.07C117.622 127.07 122.921 125.819 127.683 123.618H131.266C147.184 123.618 160.099 136.607 160.099 152.617V161.593Z" fill="url(#paint0_linear)"></path>
<path fill-rule="evenodd" clip-rule="evenodd" d="M148.294 57.3422C146.085 57.3422 144.294 59.133 144.294 61.3422V88.9466V103.819C144.294 106.656 149.261 101.917 151.615 99.5112C152.399 98.7104 153.463 98.242 154.583 98.242H184.657C186.866 98.242 188.657 96.4511 188.657 94.242V61.3422C188.657 59.133 186.866 57.3422 184.657 57.3422H148.294ZM152.041 69.6544C151.847 69.6544 151.691 69.8111 151.691 70.0044C151.691 70.1977 151.847 70.3544 152.041 70.3544H180.915C181.109 70.3544 181.265 70.1977 181.265 70.0044C181.265 69.8111 181.109 69.6544 180.915 69.6544H152.041ZM152.041 78.9513C151.847 78.9513 151.691 79.108 151.691 79.3013C151.691 79.4946 151.847 79.6513 152.041 79.6513H180.915C181.109 79.6513 181.265 79.4946 181.265 79.3013C181.265 79.108 181.109 78.9513 180.915 78.9513H152.041ZM151.691 88.5969C151.691 88.4036 151.847 88.2469 152.041 88.2469H166.128C166.321 88.2469 166.478 88.4036 166.478 88.5969C166.478 88.7902 166.321 88.9469 166.128 88.9469H152.041C151.847 88.9469 151.691 88.7902 151.691 88.5969Z" fill="url(#paint1_linear)"></path>
<path fill-rule="evenodd" clip-rule="evenodd" d="M68.0728 164.183C65.6897 165.004 63.1319 165.45 60.4699 165.45C47.5858 165.45 37.1411 155.005 37.1411 142.121C37.1411 129.237 47.5858 118.792 60.4699 118.792C73.3541 118.792 83.7988 129.237 83.7988 142.121C83.7988 150.88 78.9719 158.511 71.8331 162.5L80.7776 180.644C81.2803 181.664 80.8612 182.898 79.8415 183.4C78.8218 183.903 77.5877 183.484 77.0851 182.464L68.0728 164.183ZM79.9116 142.121C79.9116 152.858 71.2077 161.562 60.4708 161.562C49.734 161.562 41.0301 152.858 41.0301 142.121C41.0301 131.384 49.734 122.68 60.4708 122.68C71.2077 122.68 79.9116 131.384 79.9116 142.121Z" fill="#4AD3F4"></path>
<defs>
<linearGradient id="paint0_linear" x1="122.063" y1="41.4182" x2="49.3783" y2="96.3046" gradientUnits="userSpaceOnUse">
<stop stop-color="#9898AE" stop-opacity="0.943428"></stop>
<stop offset="1" stop-color="#232330"></stop>
</linearGradient>
<linearGradient id="paint1_linear" x1="167.889" y1="48.7441" x2="135.52" y2="79.8777" gradientUnits="userSpaceOnUse">
<stop stop-color="#9898AE" stop-opacity="0.943428"></stop>
<stop offset="1" stop-color="#232330"></stop>
</linearGradient>
</defs>
</svg></svg></g></svg>